<svg xmlns="http://www.w3.org/2000/svg" width="17.784" height="20" viewBox="0 0 17.784 20">
  <g id="bell-icon" transform="translate(-64.294 -10.014)">
    <path id="Path_39" data-name="Path 39" d="M68.465-500.771c-.683.238-.775.286-.866.461-.063.123-.063.147,0,.656a.7.7,0,0,1-.322.7,6.964,6.964,0,0,0-2.36,2.745,6.635,6.635,0,0,0-.417,4.474c.036.139.3.934.592,1.768s.544,1.613.556,1.74a3.242,3.242,0,0,1-.413,1.74,3.454,3.454,0,0,0-.246,2.948,3.763,3.763,0,0,0,2.07,1.982c1.935.83,4.8.755,7.739-.207a13.735,13.735,0,0,0,5.634-3.3c1.744-1.816,2.118-3.727,1.033-5.256a3.909,3.909,0,0,0-1.569-1.22,5.936,5.936,0,0,1-.771-.441,2.923,2.923,0,0,1-.727-.794c-.036-.071-.29-.771-.568-1.557s-.564-1.569-.636-1.74a7.777,7.777,0,0,0-.767-1.319,6.826,6.826,0,0,0-5.59-2.678,4.424,4.424,0,0,1-.675-.02.86.86,0,0,1-.481-.481c-.1-.211-.147-.266-.29-.334a.63.63,0,0,0-.246-.079A5.863,5.863,0,0,0,68.465-500.771Zm9.078,10.866a3.438,3.438,0,0,1,2.026.8c.667.7-.028,2.066-1.7,3.325-3.147,2.372-8.434,3.329-10.421,1.883-.779-.568-.493-1.633.771-2.853a9.507,9.507,0,0,1,2.459-1.688,14.568,14.568,0,0,1,4.728-1.45A12.834,12.834,0,0,1,77.543-489.905Z" transform="translate(0 511)" fill="#4f4f55"/>
    <path id="Path_40" data-name="Path 40" d="M320.536,110.54a13.583,13.583,0,0,0-3.5,1.216,9.719,9.719,0,0,0-1.625,1.037c-.254.238-.171.425.373.866a3.179,3.179,0,0,0,5.193-2.237C321.024,110.659,320.921,110.453,320.536,110.54Z" transform="translate(-245.861 -88.027)" fill="#4f4f55"/>
  </g>
</svg>
