<svg xmlns="http://www.w3.org/2000/svg" width="47.784" height="53.7" viewBox="0 0 47.784 53.7">
  <g id="Helpful-Icon" transform="translate(-233 -289.956)">
    <g id="Group_589" data-name="Group 589" transform="translate(234 291)">
      <path id="Path_121" data-name="Path 121" d="M-102.9,690.015l-3.016-1.734-16.546-9.511a3.343,3.343,0,0,0-3.33,0l-19.563,11.245a3.313,3.313,0,0,0-1.665,2.871v22.49a3.313,3.313,0,0,0,1.665,2.871l19.563,11.245a3.342,3.342,0,0,0,3.33,0l19.562-11.245a3.313,3.313,0,0,0,1.665-2.871v-22.49A3.312,3.312,0,0,0-102.9,690.015Z" transform="translate(147.024 -678.326)" fill="#e1e1e2"/>
      <path id="Path_122" data-name="Path 122" d="M-102.9,690.015l-19.562-11.245a3.343,3.343,0,0,0-3.33,0l-19.563,11.245a3.313,3.313,0,0,0-1.665,2.871v22.49a3.313,3.313,0,0,0,1.665,2.871l19.563,11.245a3.342,3.342,0,0,0,3.33,0l19.562-11.245a3.313,3.313,0,0,0,1.665-2.871v-22.49A3.312,3.312,0,0,0-102.9,690.015Z" transform="translate(147.024 -678.326)" fill="none" stroke="#a3a3a3" stroke-miterlimit="10" stroke-width="2"/>
    </g>
    <g id="Group_583" data-name="Group 583" transform="translate(244 306)">
      <path id="Path_198" data-name="Path 198" d="M3427.157,5412.959c0,1.444-.01,2.887,0,4.331a2.37,2.37,0,0,1-.532,1.536c-1.387,1.777-2.762,3.564-4.151,5.34a2.826,2.826,0,0,0-.522.97.66.66,0,0,1-.722.543c-1.776-.006-3.553,0-5.33,0a.659.659,0,0,1-.75-.748c0-1.684-.026-3.369.019-5.052a4.773,4.773,0,0,1,1-2.663c.757-1.049,1.53-2.087,2.308-3.121a1.382,1.382,0,0,1,1.7-.578,1.278,1.278,0,0,1,.859,1.29,1.519,1.519,0,0,1-.368.85c-.453.607-.9,1.22-1.367,1.816-.326.417-.379.787.069,1.149.143.116.259.265.395.391a.623.623,0,0,0,1-.046c1.187-1.417,2.358-2.848,3.549-4.261a.925.925,0,0,0,.172-.672q0-2.749,0-5.5a1.344,1.344,0,1,1,2.666-.019C3427.16,5410,3427.157,5411.479,3427.157,5412.959Z" transform="translate(-3400.481 -5404.333)" fill="#fff"/>
      <path id="Path_199" data-name="Path 199" d="M3283.185,5412.934q0-2.194,0-4.387a1.348,1.348,0,1,1,2.666.012c0,1.833.006,3.666,0,5.5a1.068,1.068,0,0,0,.265.751c1.155,1.372,2.292,2.759,3.442,4.135a.642.642,0,0,0,1.047.054l.373-.332a.717.717,0,0,0,.121-1.115c-.471-.641-.957-1.27-1.431-1.909a1.308,1.308,0,0,1,.124-1.925,1.387,1.387,0,0,1,1.975.263c.892,1.156,1.774,2.322,2.6,3.528a4.831,4.831,0,0,1,.833,2.829c-.018,1.5,0,3-.006,4.5,0,.633-.2.837-.823.838-1.722,0-3.443,0-5.165.006a.747.747,0,0,1-.823-.562,11.508,11.508,0,0,0-1.957-2.806c-.9-1.216-1.861-2.393-2.786-3.594a2.117,2.117,0,0,1-.449-1.34C3283.19,5415.9,3283.185,5414.415,3283.185,5412.934Z" transform="translate(-3283.181 -5404.331)" fill="#fff"/>
      <path id="Path_200" data-name="Path 200" d="M3349.315,5386.3a3.252,3.252,0,0,1,2.048-3.137,3.171,3.171,0,0,1,3.527.9c.326.359.484.368.828.007a3.119,3.119,0,0,1,4.507-.29,3.406,3.406,0,0,1,.237,4.747c-1.485,1.623-3.017,3.2-4.538,4.793a.747.747,0,0,1-1.24,0q-2.283-2.385-4.544-4.789A3.137,3.137,0,0,1,3349.315,5386.3Z" transform="translate(-3341.965 -5382.945)" fill="#a3a3a3"/>
    </g>
  </g>
</svg>
