<svg xmlns="http://www.w3.org/2000/svg" width="47.784" height="53.7" viewBox="0 0 47.784 53.7">
  <g id="Hero-Icon" transform="translate(-296 -289.956)">
    <g id="Group_590" data-name="Group 590" transform="translate(297 291)">
      <path id="Path_121" data-name="Path 121" d="M-102.9,690.015l-3.016-1.734-16.546-9.511a3.343,3.343,0,0,0-3.33,0l-19.563,11.245a3.313,3.313,0,0,0-1.665,2.871v22.49a3.313,3.313,0,0,0,1.665,2.871l19.563,11.245a3.342,3.342,0,0,0,3.33,0l19.562-11.245a3.313,3.313,0,0,0,1.665-2.871v-22.49A3.312,3.312,0,0,0-102.9,690.015Z" transform="translate(147.024 -678.326)" fill="#e1e1e2"/>
      <path id="Path_122" data-name="Path 122" d="M-102.9,690.015l-19.562-11.245a3.343,3.343,0,0,0-3.33,0l-19.563,11.245a3.313,3.313,0,0,0-1.665,2.871v22.49a3.313,3.313,0,0,0,1.665,2.871l19.563,11.245a3.342,3.342,0,0,0,3.33,0l19.562-11.245a3.313,3.313,0,0,0,1.665-2.871v-22.49A3.312,3.312,0,0,0-102.9,690.015Z" transform="translate(147.024 -678.326)" fill="none" stroke="#a3a3a3" stroke-miterlimit="10" stroke-width="2"/>
    </g>
    <g id="Group_588" data-name="Group 588" transform="translate(308 306)">
      <path id="Path_203" data-name="Path 203" d="M3614.19,5400.988q0-1.305,0-2.61a.53.53,0,0,0-.21-.521,9.287,9.287,0,0,1-2.4-2.59.836.836,0,0,0-.65-.418,9.034,9.034,0,0,1-5.638-3.031,4.278,4.278,0,0,1-1.111-3c.02-.666,0-1.333,0-2,0-.821.356-1.167,1.193-1.169,1.241,0,2.481-.014,3.722.008.347.006.452-.088.426-.431a11.843,11.843,0,0,1,0-1.221.957.957,0,0,1,1.006-1.019q5.666-.012,11.332,0a.955.955,0,0,1,.995,1.03,10.893,10.893,0,0,1-.006,1.221c-.031.364.113.423.438.418,1.259-.018,2.518-.011,3.777-.006a.993.993,0,0,1,1.126,1.125c.006.63-.024,1.26.006,1.888a4.738,4.738,0,0,1-1.677,3.772,9.142,9.142,0,0,1-5.128,2.418.71.71,0,0,0-.561.367,8.993,8.993,0,0,1-2.4,2.588.591.591,0,0,0-.246.566c.008.87,0,1.74,0,2.61Zm8.278-9.154a5.313,5.313,0,0,0,2.464-1.618,2.093,2.093,0,0,0,.6-1.61c-.017-.206-.057-.293-.281-.29-.7.012-1.4,0-2.105,0-.153,0-.289-.01-.291.216a20.1,20.1,0,0,1-.449,3.224l-.062.059Zm-12.562,0,.127-.016-.062-.06c-.107-.578-.229-1.154-.318-1.735-.086-.557.057-1.377-.256-1.614-.377-.286-1.128-.086-1.717-.089-.887,0-1.054.251-.732,1.1a2.68,2.68,0,0,0,.532.834A5.294,5.294,0,0,0,3609.906,5391.834Zm9.056,1.308c-.1-.583-.177-1.169-.3-1.747a.923.923,0,0,1,.319-1.028c.4-.326.763-.7,1.137-1.058.176-.168.342-.345.247-.627a.566.566,0,0,0-.548-.386c-.477-.056-.949-.156-1.426-.2a1.016,1.016,0,0,1-1-.691,11.255,11.255,0,0,0-.621-1.237c-.126-.248-.23-.519-.581-.513-.325.006-.418.266-.536.494-.263.509-.528,1.017-.775,1.534a.517.517,0,0,1-.452.334c-.623.077-1.241.189-1.862.283-.228.034-.434.088-.52.343a.584.584,0,0,0,.226.636,12.6,12.6,0,0,0,.96.922,1.161,1.161,0,0,1,.44,1.4,10.208,10.208,0,0,0-.232,1.364.564.564,0,0,0,.211.591.48.48,0,0,0,.568-.012c.472-.254.965-.471,1.424-.746a.934.934,0,0,1,1.066-.016c.492.292,1.01.543,1.529.787C3618.641,5393.761,3618.959,5393.56,3618.962,5393.142Z" transform="translate(-3604.18 -5382.982)" fill="#a3a3a3"/>
      <path id="Path_204" data-name="Path 204" d="M3656.9,5544.968h3.994c.721,0,1.443-.011,2.164,0a2.421,2.421,0,0,1,2.509,2.833c-.044.417-.292.5-.65.5-1.406-.005-2.811,0-4.217,0h-7.657c-.742,0-.81-.068-.814-.776a2.371,2.371,0,0,1,2.507-2.555C3655.458,5544.957,3656.18,5544.968,3656.9,5544.968Z" transform="translate(-3646.891 -5526.962)" fill="#fff"/>
      <path id="Path_205" data-name="Path 205" d="M3681.638,5414.513c0,.417-.322.618-.727.427-.518-.244-1.036-.494-1.528-.786a.934.934,0,0,0-1.066.016c-.459.274-.952.492-1.425.746a.478.478,0,0,1-.567.012.565.565,0,0,1-.211-.591,10.22,10.22,0,0,1,.232-1.363,1.162,1.162,0,0,0-.44-1.4,12.608,12.608,0,0,1-.96-.922.581.581,0,0,1-.225-.635c.085-.255.291-.308.519-.342.621-.095,1.239-.207,1.862-.284a.517.517,0,0,0,.452-.333c.247-.518.512-1.026.775-1.535.117-.227.211-.488.536-.493.35-.006.454.265.581.512a11.212,11.212,0,0,1,.621,1.237,1.016,1.016,0,0,0,1,.691c.478.046.949.146,1.426.2a.566.566,0,0,1,.548.386c.095.282-.071.458-.247.626-.374.358-.737.731-1.138,1.057a.925.925,0,0,0-.318,1.029C3681.461,5413.343,3681.54,5413.93,3681.638,5414.513Z" transform="translate(-3666.855 -5404.353)" fill="#fff"/>
      <path id="Path_206" data-name="Path 206" d="M3655.774,5461.947l.063.059-.127.016A.353.353,0,0,1,3655.774,5461.947Z" transform="translate(-3649.983 -5453.171)" fill="#fefefe"/>
      <path id="Path_207" data-name="Path 207" d="M3767.735,5462.023l-.126-.016.062-.059A.378.378,0,0,1,3767.735,5462.023Z" transform="translate(-3749.447 -5453.172)" fill="#fefefe"/>
    </g>
  </g>
</svg>
