<svg xmlns="http://www.w3.org/2000/svg" width="47.784" height="53.7" viewBox="0 0 47.784 53.7">
  <g id="Popular-Icon" transform="translate(-171 -289.956)">
    <g id="Group_581" data-name="Group 581" transform="translate(172 291)">
      <path id="Path_121" data-name="Path 121" d="M-102.9,690.015l-3.016-1.734-16.546-9.511a3.343,3.343,0,0,0-3.33,0l-19.563,11.245a3.313,3.313,0,0,0-1.665,2.871v22.49a3.313,3.313,0,0,0,1.665,2.871l19.563,11.245a3.342,3.342,0,0,0,3.33,0l19.562-11.245a3.313,3.313,0,0,0,1.665-2.871v-22.49A3.312,3.312,0,0,0-102.9,690.015Z" transform="translate(147.024 -678.326)" fill="#e1e1e2"/>
      <path id="Path_122" data-name="Path 122" d="M-102.9,690.015l-19.562-11.245a3.343,3.343,0,0,0-3.33,0l-19.563,11.245a3.313,3.313,0,0,0-1.665,2.871v22.49a3.313,3.313,0,0,0,1.665,2.871l19.563,11.245a3.342,3.342,0,0,0,3.33,0l19.562-11.245a3.313,3.313,0,0,0,1.665-2.871v-22.49A3.312,3.312,0,0,0-102.9,690.015Z" transform="translate(147.024 -678.326)" fill="none" stroke="#a3a3a3" stroke-miterlimit="10" stroke-width="2"/>
    </g>
    <g id="Group_584" data-name="Group 584" transform="translate(180.611 305)">
      <path id="Path_208" data-name="Path 208" d="M3935.162,5436.846a1.211,1.211,0,0,1,1.207.828c.665,1.38,1.362,2.744,1.991,4.14a1.2,1.2,0,0,0,1.092.778c1.564.194,3.121.451,4.682.67a1.259,1.259,0,0,1,.642,2.205c-1.159,1.108-2.285,2.251-3.45,3.353a1.033,1.033,0,0,0-.319,1.055q.405,2.186.776,4.379c.2,1.209-.323,1.979-1.283,1.877a1.735,1.735,0,0,1-.582-.2c-1.321-.68-2.659-1.332-3.946-2.07a1.475,1.475,0,0,0-1.65.017c-1.295.728-2.609,1.426-3.959,2.043a1.852,1.852,0,0,1-1.349-.016,1.09,1.09,0,0,1-.522-1.313c.289-1.6.564-3.2.794-4.8a1.208,1.208,0,0,0-.262-.9c-1.134-1.166-2.309-2.292-3.483-3.418a1.157,1.157,0,0,1-.407-1.3,1.245,1.245,0,0,1,1.1-.917c1.517-.2,3.024-.476,4.543-.653a1.263,1.263,0,0,0,1.146-.812c.656-1.41,1.375-2.79,2.062-4.187A1.189,1.189,0,0,1,3935.162,5436.846Z" transform="translate(-3924.675 -5432.127)" fill="#a3a3a3"/>
      <path id="Path_209" data-name="Path 209" d="M4050.3,5384.692a5.786,5.786,0,0,1-.519.754q-4.131,4.151-8.282,8.285c-.579.575-.875.537-1.522-.1-.705-.694-.762-.993-.187-1.57q4.129-4.155,8.281-8.286c.286-.286.633-.594,1.031-.281A13.428,13.428,0,0,1,4050.3,5384.692Z" transform="translate(-4023.916 -5385.361)" fill="#fff"/>
      <path id="Path_210" data-name="Path 210" d="M4014.459,5385.331a5.271,5.271,0,0,1-.488.753c-.824.846-1.654,1.688-2.505,2.505-.549.527-.846.469-1.515-.2-.65-.656-.692-.945-.14-1.518.788-.815,1.576-1.636,2.418-2.393.244-.22.783-.424,1-.3A6.816,6.816,0,0,1,4014.459,5385.331Z" transform="translate(-3997.365 -5386.026)" fill="#fff"/>
      <path id="Path_211" data-name="Path 211" d="M4083.389,5460.472a6.739,6.739,0,0,1-1.169-1.213c-.126-.214.058-.76.273-1,.756-.844,1.578-1.63,2.393-2.42.583-.564.872-.531,1.518.1.7.693.755.985.195,1.566-.8.833-1.628,1.647-2.458,2.455A5.778,5.778,0,0,1,4083.389,5460.472Z" transform="translate(-4060.721 -5448.139)" fill="#fff"/>
    </g>
  </g>
</svg>
