<svg xmlns="http://www.w3.org/2000/svg" width="47.784" height="53.7" viewBox="0 0 47.784 53.7">
  <g id="Popular-Icon-Enable" transform="translate(-527.107 -289.956)">
    <g id="Group_464" data-name="Group 464" transform="translate(528.107 291)">
      <path id="Path_121" data-name="Path 121" d="M-102.9,690.015l-3.016-1.734-16.546-9.511a3.343,3.343,0,0,0-3.33,0l-19.563,11.245a3.313,3.313,0,0,0-1.665,2.871v22.49a3.313,3.313,0,0,0,1.665,2.871l19.563,11.245a3.342,3.342,0,0,0,3.33,0l19.562-11.245a3.313,3.313,0,0,0,1.665-2.871v-22.49A3.312,3.312,0,0,0-102.9,690.015Z" transform="translate(146.917 -678.326)" fill="#333"/>
      <path id="Path_122" data-name="Path 122" d="M-102.9,690.015l-19.562-11.245a3.343,3.343,0,0,0-3.33,0l-19.563,11.245a3.313,3.313,0,0,0-1.665,2.871v22.49a3.313,3.313,0,0,0,1.665,2.871l19.563,11.245a3.342,3.342,0,0,0,3.33,0l19.562-11.245a3.313,3.313,0,0,0,1.665-2.871v-22.49A3.312,3.312,0,0,0-102.9,690.015Z" transform="translate(147.024 -678.326)" fill="none" stroke="#38bec0" stroke-miterlimit="10" stroke-width="2"/>
    </g>
    <g id="Group_580" data-name="Group 580" transform="translate(537.611 306)">
      <path id="Path_208" data-name="Path 208" d="M3933.105,5436.845a.964.964,0,0,1,.961.66c.529,1.1,1.085,2.185,1.585,3.3a.956.956,0,0,0,.87.62c1.246.155,2.485.359,3.729.534a1,1,0,0,1,.511,1.756c-.923.883-1.82,1.793-2.748,2.67a.821.821,0,0,0-.254.84q.322,1.741.618,3.487c.163.963-.257,1.576-1.021,1.5a1.37,1.37,0,0,1-.463-.161c-1.052-.541-2.118-1.06-3.143-1.648a1.175,1.175,0,0,0-1.314.014c-1.031.579-2.078,1.136-3.153,1.627a1.476,1.476,0,0,1-1.074-.013.867.867,0,0,1-.416-1.046c.23-1.271.449-2.544.632-3.823a.965.965,0,0,0-.209-.716c-.9-.928-1.839-1.825-2.774-2.722a.921.921,0,0,1-.324-1.037.991.991,0,0,1,.876-.73c1.208-.161,2.408-.379,3.618-.521a1,1,0,0,0,.913-.646c.522-1.123,1.1-2.222,1.642-3.334A.947.947,0,0,1,3933.105,5436.845Z" transform="translate(-3924.675 -5428.197)" fill="#38bec0"/>
      <path id="Path_209" data-name="Path 209" d="M4048.085,5384.422a4.6,4.6,0,0,1-.413.6q-3.29,3.305-6.6,6.6c-.461.458-.7.428-1.212-.081-.562-.553-.606-.791-.149-1.25q3.288-3.309,6.594-6.6c.228-.228.5-.473.821-.224A10.686,10.686,0,0,1,4048.085,5384.422Z" transform="translate(-4021.696 -5385.361)" fill="#fff"/>
      <path id="Path_210" data-name="Path 210" d="M4013.435,5385.087a4.189,4.189,0,0,1-.389.6c-.656.674-1.317,1.344-1.995,2-.437.419-.674.374-1.206-.163s-.551-.752-.111-1.209c.627-.649,1.255-1.3,1.926-1.906.194-.175.623-.337.794-.241A5.429,5.429,0,0,1,4013.435,5385.087Z" transform="translate(-3996.795 -5386.049)" fill="#fff"/>
      <path id="Path_211" data-name="Path 211" d="M4083.143,5459.447a5.373,5.373,0,0,1-.931-.966c-.1-.171.046-.6.217-.8.6-.672,1.256-1.3,1.905-1.927.464-.45.694-.423,1.208.083.561.552.6.785.155,1.247-.64.663-1.3,1.312-1.957,1.955A4.6,4.6,0,0,1,4083.143,5459.447Z" transform="translate(-4059.717 -5447.685)" fill="#fff"/>
    </g>
  </g>
</svg>
