<svg xmlns="http://www.w3.org/2000/svg" width="15" height="12" viewBox="0 0 15 12">
  <path id="comments-solid" d="M9.748,4.125C9.748,1.847,7.566,0,4.873,0S0,1.847,0,4.125A3.713,3.713,0,0,0,.975,6.6,6.4,6.4,0,0,1,.047,7.947a.18.18,0,0,0-.034.2.177.177,0,0,0,.165.107,4.865,4.865,0,0,0,2.244-.563,5.551,5.551,0,0,0,2.452.563C7.566,8.25,9.748,6.4,9.748,4.125Zm4.3,6.274A3.894,3.894,0,0,0,15,7.875,4.325,4.325,0,0,0,10.5,3.75h-.022c.01.123.022.247.022.374A5.09,5.09,0,0,1,6.136,8.871,4.423,4.423,0,0,0,10.5,12a4.8,4.8,0,0,0,2.176-.515A4.834,4.834,0,0,0,14.818,12a.177.177,0,0,0,.165-.108.18.18,0,0,0-.034-.2A6.55,6.55,0,0,1,14.051,10.4Z" transform="translate(0.002)" fill="#707070"/>
</svg>
