<svg id="Component_138_1" data-name="Component 138 – 1" xmlns="http://www.w3.org/2000/svg" width="13.846" height="13.772" viewBox="0 0 13.846 13.772">
  <path id="message-solid" d="M-.92,1.706V9.47A1.713,1.713,0,0,0,.811,11.177H4.7L8.082,13.71a.326.326,0,0,0,.517-.262V11.177h2.6A1.729,1.729,0,0,0,12.926,9.47V1.706A1.713,1.713,0,0,0,11.2,0H.811A1.714,1.714,0,0,0-.92,1.706Z" transform="translate(0.92)" fill="#f5891d"/>
  <path id="star-solid" d="M26.15,1.768l-1.727.255a.384.384,0,0,0-.214.654L25.461,3.9l-.3,1.762a.385.385,0,0,0,.56.4l1.543-.823,1.542.823a.387.387,0,0,0,.406-.028.383.383,0,0,0,.154-.376l-.3-1.762,1.252-1.228a.386.386,0,0,0,.095-.394.382.382,0,0,0-.309-.26l-1.726-.255L27.614.177a.384.384,0,0,0-.691,0Z" transform="translate(-20.345 2.578)" fill="#fff"/>
</svg>
