<svg id="Component_140_1" data-name="Component 140 – 1" xmlns="http://www.w3.org/2000/svg" width="432" height="292" viewBox="0 0 432 292">
  <g id="Group_782" data-name="Group 782">
    <g id="Group_746" data-name="Group 746" transform="translate(0 0)">
      <g id="Group_738" data-name="Group 738" transform="translate(33.424)">
        <path id="Path_363" data-name="Path 363" d="M513.558,243.048a178.5,178.5,0,0,1-5.644,44.65c-.532,2.058-1.1,4.11-1.7,6.139q-1.9,6.359-4.235,12.517-1.175,3.1-2.473,6.139a177.5,177.5,0,0,1-26.257,43.371H200.716a177.237,177.237,0,0,1-16.465-23.748q-1.758-3.033-3.394-6.139-2.125-4.03-4.048-8.183-1.413-3.033-2.7-6.139a178.293,178.293,0,0,1,24.035-178.216c1.639-2.087,3.314-4.131,5.047-6.139q5.241-6.121,11.029-11.737,3.246-3.163,6.643-6.139A175.431,175.431,0,0,1,336.984,65.67c66.4,0,124.247,36.82,154.4,91.242,1.114,2.022,2.2,4.066,3.235,6.139A177.24,177.24,0,0,1,513.558,243.048Z" transform="translate(-160.41 -65.67)" fill="#f9f7f8"/>
      </g>
      <g id="Group_739" data-name="Group 739" transform="translate(39.071 43.629)">
        <rect id="Rectangle_170" data-name="Rectangle 170" width="65.898" height="6.122" rx="3.061" fill="#f9f7f8"/>
      </g>
      <g id="Group_740" data-name="Group 740" transform="translate(338.915 91.248)">
        <rect id="Rectangle_171" data-name="Rectangle 171" width="65.898" height="6.122" rx="3.061" fill="#f9f7f8"/>
      </g>
      <g id="Group_741" data-name="Group 741" transform="translate(366.102 222.042)">
        <rect id="Rectangle_172" data-name="Rectangle 172" width="65.898" height="6.122" rx="3.061" fill="#f9f7f8"/>
      </g>
      <g id="Group_742" data-name="Group 742" transform="translate(347.377 240.827)">
        <rect id="Rectangle_173" data-name="Rectangle 173" width="65.898" height="6.122" rx="3.061" fill="#f9f7f8"/>
      </g>
      <g id="Group_743" data-name="Group 743" transform="translate(33.249 246.111)">
        <rect id="Rectangle_174" data-name="Rectangle 174" width="65.898" height="6.122" rx="3.061" fill="#f9f7f8"/>
      </g>
      <g id="Group_744" data-name="Group 744" transform="translate(9.243 260.395)">
        <rect id="Rectangle_175" data-name="Rectangle 175" width="65.898" height="6.122" rx="3.061" fill="#f9f7f8"/>
      </g>
      <g id="Group_745" data-name="Group 745" transform="translate(0 61.634)">
        <rect id="Rectangle_176" data-name="Rectangle 176" width="104.968" height="6.122" rx="3.061" fill="#f9f7f8"/>
      </g>
    </g>
    <g id="Group_751" data-name="Group 751" transform="translate(60.857 120.977)">
      <g id="Group_747" data-name="Group 747">
        <rect id="Rectangle_177" data-name="Rectangle 177" width="39.431" height="84.803" rx="19.715" fill="#f2f2f2"/>
      </g>
      <g id="Group_748" data-name="Group 748" transform="translate(18.605 30.128)">
        <rect id="Rectangle_178" data-name="Rectangle 178" width="1.921" height="138.217" rx="0.96" fill="#e5e5e5"/>
      </g>
      <g id="Group_749" data-name="Group 749" transform="translate(18.477 49.295)">
        <rect id="Rectangle_179" data-name="Rectangle 179" width="1.921" height="13.804" rx="0.96" transform="translate(9.761 0) rotate(45)" fill="#e5e5e5"/>
      </g>
      <g id="Group_750" data-name="Group 750" transform="translate(9.806 37.232)">
        <rect id="Rectangle_180" data-name="Rectangle 180" width="1.921" height="13.804" rx="0.96" transform="translate(11.119 9.761) rotate(135)" fill="#e5e5e5"/>
      </g>
    </g>
    <g id="Group_756" data-name="Group 756" transform="translate(106.623 74.525)">
      <g id="Group_752" data-name="Group 752">
        <rect id="Rectangle_181" data-name="Rectangle 181" width="50.311" height="108.203" rx="25.156" fill="#f2f2f2"/>
      </g>
      <g id="Group_753" data-name="Group 753" transform="translate(23.739 38.442)">
        <rect id="Rectangle_182" data-name="Rectangle 182" width="2.45" height="176.357" rx="1.225" fill="#e5e5e5"/>
      </g>
      <g id="Group_754" data-name="Group 754" transform="translate(23.576 62.898)">
        <rect id="Rectangle_183" data-name="Rectangle 183" width="2.45" height="17.613" rx="1.225" transform="translate(12.454) rotate(45)" fill="#e5e5e5"/>
      </g>
      <g id="Group_755" data-name="Group 755" transform="translate(12.511 47.506)">
        <rect id="Rectangle_184" data-name="Rectangle 184" width="2.45" height="17.613" rx="1.225" transform="translate(14.187 12.454) rotate(135)" fill="#e5e5e5"/>
      </g>
    </g>
    <g id="Group_763" data-name="Group 763" transform="translate(248.293 15.905)">
      <g id="Group_757" data-name="Group 757" transform="translate(80.599 100.151)">
        <path id="Path_364" data-name="Path 364" d="M589.955,391.552H571.5l4.816-165.885h8.372Z" transform="translate(-571.5 -225.667)" fill="#f2f2f2"/>
      </g>
      <g id="Group_758" data-name="Group 758" transform="translate(93.503 100.151)">
        <path id="Path_365" data-name="Path 365" d="M594.968,391.552h-2.01l-3.541-165.885h.285Z" transform="translate(-589.417 -225.667)" fill="#ebebeb"/>
      </g>
      <g id="Group_759" data-name="Group 759" transform="translate(84.32 94.348)">
        <ellipse id="Ellipse_62" data-name="Ellipse 62" cx="5.281" cy="5.281" rx="5.281" ry="5.281" fill="#f2f2f2"/>
      </g>
      <g id="Group_760" data-name="Group 760" transform="translate(89.602 98.041)">
        <path id="Path_366" data-name="Path 366" d="M584,225.021l85.583,50.414v-6.122l-55.9-43.247a12.95,12.95,0,0,0-11.273-2.266l-11.731,3.142Z" transform="translate(-584 -223.359)" fill="#f2f2f2"/>
      </g>
      <g id="Group_761" data-name="Group 761" transform="translate(0 99.699)">
        <path id="Path_367" data-name="Path 367" d="M549.413,225.667,459.587,268.06l5.061,3.444,67.2-21.886a12.949,12.949,0,0,0,8.216-8.045l4-11.466Z" transform="translate(-459.587 -225.667)" fill="#f2f2f2"/>
      </g>
      <g id="Group_762" data-name="Group 762" transform="translate(75.568)">
        <path id="Path_368" data-name="Path 368" d="M578.563,187.078l.885-99.324-5.3,3.06-9.514,70.034a12.95,12.95,0,0,0,3.672,10.9l8.585,8.59Z" transform="translate(-564.514 -87.754)" fill="#f2f2f2"/>
      </g>
    </g>
    <g id="Group_770" data-name="Group 770" transform="translate(217.501 119.394)">
      <g id="Group_764" data-name="Group 764" transform="translate(52.456 64.643)">
        <path id="Path_369" data-name="Path 369" d="M501.417,428.022H489.406l3.135-107.963h5.449Z" transform="translate(-489.406 -320.06)" fill="#f2f2f2"/>
      </g>
      <g id="Group_765" data-name="Group 765" transform="translate(60.854 64.643)">
        <path id="Path_370" data-name="Path 370" d="M504.68,428.022h-1.308l-2.3-107.963h.186Z" transform="translate(-501.067 -320.06)" fill="#ebebeb"/>
      </g>
      <g id="Group_766" data-name="Group 766" transform="translate(54.878 61.206)">
        <ellipse id="Ellipse_63" data-name="Ellipse 63" cx="3.437" cy="3.437" rx="3.437" ry="3.437" fill="#f2f2f2"/>
      </g>
      <g id="Group_767" data-name="Group 767" transform="translate(58.316 63.561)">
        <path id="Path_371" data-name="Path 371" d="M497.542,319.64l55.7,32.811v-3.984L516.86,320.32a8.43,8.43,0,0,0-7.337-1.475l-7.635,2.045Z" transform="translate(-497.542 -318.558)" fill="#f2f2f2"/>
      </g>
      <g id="Group_768" data-name="Group 768" transform="translate(0 64.643)">
        <path id="Path_372" data-name="Path 372" d="M475.032,320.06,416.57,347.65l3.294,2.242L463.6,335.648a8.429,8.429,0,0,0,5.347-5.236l2.606-7.463Z" transform="translate(-416.57 -320.06)" fill="#f2f2f2"/>
      </g>
      <g id="Group_769" data-name="Group 769" transform="translate(49.182)">
        <path id="Path_373" data-name="Path 373" d="M494,294.945l.576-64.643-3.451,1.991-6.192,45.58a8.429,8.429,0,0,0,2.39,7.092l5.588,5.591Z" transform="translate(-484.859 -230.302)" fill="#f2f2f2"/>
      </g>
    </g>
    <g id="Group_771" data-name="Group 771" transform="translate(161.614 73.02)">
      <path id="Path_374" data-name="Path 374" d="M384.936,187.369H338.75a5.759,5.759,0,0,1,3.565-5.329q-.022-.216-.022-.432a4.467,4.467,0,0,1,6.338-4.062A4.479,4.479,0,0,1,353,174.01a4.079,4.079,0,0,1,.843.086v-.086a7.256,7.256,0,0,1,14.426-1.116,4.4,4.4,0,0,1,1.419-.23A4.476,4.476,0,0,1,374,175.969a5.6,5.6,0,0,1,7.476,5.308,5.674,5.674,0,0,1-.058.785A5.77,5.77,0,0,1,384.936,187.369Z" transform="translate(-338.75 -166.75)" fill="#f2f2f2"/>
    </g>
    <g id="Group_772" data-name="Group 772" transform="translate(149.784 192.445)">
      <path id="Path_375" data-name="Path 375" d="M322.285,344.593h28a3.492,3.492,0,0,0-2.161-3.231c.009-.087.014-.174.014-.262a2.708,2.708,0,0,0-3.843-2.462,2.715,2.715,0,0,0-2.65-2.144,2.445,2.445,0,0,0-.511.053v-.053a4.4,4.4,0,0,0-8.746-.677,2.677,2.677,0,0,0-.86-.14,2.715,2.715,0,0,0-2.616,2,3.4,3.4,0,0,0-4.5,3.694A3.5,3.5,0,0,0,322.285,344.593Z" transform="translate(-322.285 -332.092)" fill="#f2f2f2"/>
    </g>
    <g id="Group_773" data-name="Group 773" transform="translate(249.689 118.241)">
      <path id="Path_376" data-name="Path 376" d="M473.282,234.774H461.19a1.508,1.508,0,0,1,.933-1.4.994.994,0,0,1-.006-.113,15.572,15.572,0,0,0,2.8-1.989,1.057,1.057,0,0,1,.22.023v-.023a1.9,1.9,0,0,1,3.777-.292,1.155,1.155,0,0,1,.372-.06,1.171,1.171,0,0,1,1.129.866,1.469,1.469,0,0,1,1.942,1.6A1.511,1.511,0,0,1,473.282,234.774Z" transform="translate(-461.19 -229.375)" fill="#f2f2f2"/>
    </g>
    <g id="Group_774" data-name="Group 774" transform="translate(310.886 261.24)">
      <path id="Path_377" data-name="Path 377" d="M548.83,446.876h0a2.487,2.487,0,0,0-2.338,3.334h0a3.654,3.654,0,0,0,2.644,2.323l.816.182a.7.7,0,0,1,.541.573l.369,2.28a.7.7,0,0,0,.683.59l40.018.617a.706.706,0,0,0,.466-.167l1.678-1.424a.7.7,0,0,0-.309-1.223l-.081-.017a.7.7,0,0,1-.282-1.244l1.5-1.149a1.813,1.813,0,0,0-.882-3.237l-2.3-.284a1.428,1.428,0,0,1-1.252-1.493l.056-1.067a1.361,1.361,0,0,0-2.122-1.2h0a.819.819,0,0,1-1.162-1.1L590.6,436.9a2.335,2.335,0,0,0-2.282-3.513l-7.684.912a.7.7,0,0,1-.716-.393l-2.333-4.859a3.163,3.163,0,0,0-5.544-.29l-3.386,5.5a.7.7,0,0,1-1.134.086l-4.652-5.479a3.764,3.764,0,0,0-6.591,1.868l-1.1,7.2a.7.7,0,0,1-.658.595l-2.611.139a3.758,3.758,0,0,0-3.278,5.175l.843,2.06A.7.7,0,0,1,548.83,446.876Z" transform="translate(-546.342 -427.257)" fill="#e6e5e9"/>
    </g>
    <g id="Group_775" data-name="Group 775" transform="translate(69.453 267.108)">
      <path id="Path_378" data-name="Path 378" d="M227.177,438.714l-5.768-2.989a2.832,2.832,0,0,0-4.135,2.514v1.486a2.265,2.265,0,0,1-2.488,2.254l-1.4-.139a2.547,2.547,0,0,0-2.4,3.9l.858,1.353a2.316,2.316,0,0,1-.367,2.926h0A2.333,2.333,0,0,0,212.614,454h0a.762.762,0,0,1,.6.627l.366,2.268H239.24L236.9,445.016Z" transform="translate(-210.579 -435.404)" fill="#e4e5e2"/>
    </g>
    <g id="Group_776" data-name="Group 776" transform="translate(235.796 267.108)">
      <path id="Path_379" data-name="Path 379" d="M453.953,438.714l5.768-2.989a2.832,2.832,0,0,1,4.135,2.514v1.486a2.265,2.265,0,0,0,2.488,2.254l1.4-.139a2.547,2.547,0,0,1,2.4,3.9l-.858,1.353a2.316,2.316,0,0,0,.367,2.926h0A2.333,2.333,0,0,1,468.516,454h0a.762.762,0,0,0-.6.627l-.366,2.268H441.89l2.341-11.883Z" transform="translate(-441.89 -435.404)" fill="#e4e5e2"/>
    </g>
    <g id="Group_777" data-name="Group 777" transform="translate(80.315 254.155)">
      <path id="Path_380" data-name="Path 380" d="M232.157,453.79h41.772a3.532,3.532,0,0,0,3.134-1.9l.973-1.869a3.139,3.139,0,0,0-1.26-4.193l-4.58-2.544a1.424,1.424,0,0,1-.719-1.44l.271-1.974a5.447,5.447,0,0,0-5.955-6.161h0a1.424,1.424,0,0,1-1.555-1.631l.726-4.766a4.768,4.768,0,0,0-7.482-4.6l-5.572,3.976a1.425,1.425,0,0,1-2.059-.443l-3.609-6.2a5.273,5.273,0,0,0-9.762,1.805l-1.115,6.841a1.424,1.424,0,0,1-1.53,1.191l-2.2-.192a5.111,5.111,0,0,0-4.691,7.934l.721,1.077a4.115,4.115,0,0,1-.551,5.237h0a4.7,4.7,0,0,0,.707,7.3l3.554,2.321A1.426,1.426,0,0,0,232.157,453.79Z" transform="translate(-225.694 -417.419)" fill="#f2f2f2"/>
    </g>
    <g id="Group_778" data-name="Group 778" transform="translate(351.598 246.189)">
      <path id="Path_381" data-name="Path 381" d="M603.65,414.263a.655.655,0,0,1-.138-.015.6.6,0,0,1-.465-.554c-.086-1.528.04-4.341,1.866-6.019,1.221-1.122,2.978-1.532,5.227-1.211l.111.035a.679.679,0,0,1,.418.543c.057.555-.6,1.077-1.8,2.022a17.8,17.8,0,0,0-4.7,4.894h0A.593.593,0,0,1,603.65,414.263Zm5.066-7.186A4.737,4.737,0,0,0,605.4,408.2c-1.465,1.346-1.684,3.6-1.651,5.049a19.2,19.2,0,0,1,4.671-4.755,9.165,9.165,0,0,0,1.5-1.333A8.728,8.728,0,0,0,608.716,407.077Z" transform="translate(-603.028 -406.358)" fill="#e4e5e2"/>
    </g>
    <g id="Group_779" data-name="Group 779" transform="translate(103.121 235.85)">
      <path id="Path_382" data-name="Path 382" d="M258.089,402.224a.609.609,0,0,1-.4-.138c-.434-.352-.334-1.188-.156-2.7a18.406,18.406,0,0,0-.072-6.527h0a.681.681,0,0,1,1.128-.666c1.071,1,2.849,3.041,2.719,5.434a6.156,6.156,0,0,1-2.838,4.5l-.1.054A.891.891,0,0,1,258.089,402.224Zm.1-9.422a19.266,19.266,0,0,1,.059,6.665,9.115,9.115,0,0,0-.12,2.005,5.388,5.388,0,0,0,2.461-3.888C260.7,395.55,259.179,393.747,258.193,392.8Z" transform="translate(-257.385 -392.003)" fill="#e4e5e2"/>
    </g>
    <g id="Group_780" data-name="Group 780" transform="translate(359.177 268.442)">
      <path id="Path_383" data-name="Path 383" d="M614.3,444.109a.519.519,0,0,1-.514-.421c-.285-1.379-.56-3.909.809-5.361.868-.92,2.236-1.248,4.06-.982l.071.018c.335.123.693.283.717.631.025.374-.312.551-.87.845a6.27,6.27,0,0,0-3.744,4.82h0a.528.528,0,0,1-.518.451Zm-.181-.568h0Zm3.378-5.566a3.122,3.122,0,0,0-2.377.847,4.777,4.777,0,0,0-.784,3.766,7.076,7.076,0,0,1,3.9-4.387c.089-.047.189-.1.277-.148h0A7.26,7.26,0,0,0,617.495,437.975Z" transform="translate(-613.551 -437.256)" fill="#e4e5e2"/>
    </g>
    <g id="Group_781" data-name="Group 781" transform="translate(307.076 257.518)">
      <path id="Path_384" data-name="Path 384" d="M547.167,428.269a.529.529,0,0,1-.5-.345,6.271,6.271,0,0,0-4.66-3.938c-.608-.172-.974-.276-1.027-.647-.049-.344.268-.575.57-.765l.066-.032c1.731-.642,3.136-.6,4.176.12,1.64,1.136,1.9,3.669,1.9,5.077a.52.52,0,0,1-.427.52A.577.577,0,0,1,547.167,428.269Zm-5.263-5.064c.1.029.205.06.3.088a7.076,7.076,0,0,1,4.726,3.482,4.782,4.782,0,0,0-1.548-3.522,3.735,3.735,0,0,0-3.48-.049Z" transform="translate(-540.978 -422.089)" fill="#e4e5e2"/>
    </g>
  </g>
  <g id="Group_805" data-name="Group 805" transform="translate(59.896 138.86)">
    <g id="Group_786" data-name="Group 786" transform="translate(102.63 0)">
      <g id="Group_783" data-name="Group 783" transform="translate(19.726)">
        <path id="Path_385" data-name="Path 385" d="M367.06,329.249,386.7,257.33h12.964l9.017,32.236,11.105,39.683Z" transform="translate(-367.06 -257.33)" fill="#2f3777"/>
      </g>
      <g id="Group_784" data-name="Group 784" transform="translate(11.552 83.363)">
        <path id="Path_386" data-name="Path 386" d="M355.71,391.567l5.049-18.487h59.049l5.171,18.487Z" transform="translate(-355.71 -373.08)" fill="#3069fe"/>
      </g>
      <g id="Group_785" data-name="Group 785" transform="translate(0 113.373)">
        <path id="Path_387" data-name="Path 387" d="M432.33,445.538H339.67l7.252-26.546,1.152-4.242h75.642Z" transform="translate(-339.67 -414.75)" fill="#3069fe"/>
      </g>
    </g>
    <g id="Group_793" data-name="Group 793" transform="translate(106.125 10.652)">
      <g id="Group_787" data-name="Group 787" transform="translate(16.348)">
        <path id="Path_388" data-name="Path 388" d="M419.948,333.387H367.222l16.73-61.267a58.771,58.771,0,0,1,23.363,16.125Z" transform="translate(-367.222 -272.12)" fill="#2f3777"/>
      </g>
      <g id="Group_788" data-name="Group 788" transform="translate(8.174 72.711)">
        <path id="Path_389" data-name="Path 389" d="M360.921,373.08h58.228a65.226,65.226,0,0,1-6.611,18.487H355.872Z" transform="translate(-355.872 -373.08)" fill="#2f3777"/>
      </g>
      <g id="Group_789" data-name="Group 789" transform="translate(0 102.721)">
        <path id="Path_390" data-name="Path 390" d="M401.381,414.75c-10.781,12.373-26.157,20.108-43.226,20.108a55.453,55.453,0,0,1-13.633-1.692l5.027-18.415Z" transform="translate(-344.522 -414.75)" fill="#2f3777"/>
      </g>
      <g id="Group_790" data-name="Group 790" transform="translate(16.348)">
        <path id="Path_391" data-name="Path 391" d="M419.948,333.387H367.222l16.73-61.267a58.771,58.771,0,0,1,23.363,16.125Z" transform="translate(-367.222 -272.12)" fill="#5282fe"/>
      </g>
      <g id="Group_791" data-name="Group 791" transform="translate(0 102.721)">
        <path id="Path_392" data-name="Path 392" d="M401.381,414.75c-10.781,12.373-26.157,20.108-43.226,20.108a55.453,55.453,0,0,1-13.633-1.692l5.027-18.415Z" transform="translate(-344.522 -414.75)" fill="#5282fe"/>
      </g>
      <g id="Group_792" data-name="Group 792" transform="translate(8.174 72.711)">
        <path id="Path_393" data-name="Path 393" d="M419.148,373.08a65.226,65.226,0,0,1-6.611,18.487H355.872l5.049-18.487Z" transform="translate(-355.872 -373.08)" fill="#5282fe"/>
      </g>
    </g>
    <g id="Group_796" data-name="Group 796" transform="translate(86.123 137.86)">
      <g id="Group_794" data-name="Group 794">
        <path id="Path_398" data-name="Path 398" d="M0,0H125.134V12.6H0Z" fill="#3069fe"/>
      </g>
      <g id="Group_795" data-name="Group 795">
        <path id="Path_394" data-name="Path 394" d="M410.476,448.75c-7.4,5.848-23.55,10.486-43.9,12.6H316.75v-12.6Z" transform="translate(-316.75 -448.75)" fill="#5282fe"/>
      </g>
    </g>
    <g id="Group_800" data-name="Group 800" transform="translate(109.883 0)">
      <g id="Group_797" data-name="Group 797" transform="translate(0 113.373)">
        <path id="Path_395" data-name="Path 395" d="M350.892,414.75h15.455a40.315,40.315,0,0,1-16.608,4.242Z" transform="translate(-349.74 -414.75)" fill="#7fa2fe"/>
      </g>
      <g id="Group_798" data-name="Group 798" transform="translate(4.3 83.363)">
        <path id="Path_396" data-name="Path 396" d="M395.573,373.08a74.886,74.886,0,0,1-12.416,18.487H355.71l5.049-18.487Z" transform="translate(-355.71 -373.08)" fill="#7fa2fe"/>
      </g>
      <g id="Group_799" data-name="Group 799" transform="translate(12.474)">
        <path id="Path_397" data-name="Path 397" d="M408.788,294.542a110.979,110.979,0,0,1-5.416,34.706H367.06L386.7,257.33h12.963l9.017,32.236C408.752,291.208,408.788,292.872,408.788,294.542Z" transform="translate(-367.06 -257.33)" fill="#7fa2fe"/>
      </g>
    </g>
    <g id="Group_801" data-name="Group 801" transform="translate(0 149.743)">
      <rect id="Rectangle_186" data-name="Rectangle 186" width="30.368" height="3.181" rx="1.59" fill="#262850"/>
    </g>
    <g id="Group_802" data-name="Group 802" transform="translate(240.785 149.743)">
      <rect id="Rectangle_187" data-name="Rectangle 187" width="26.827" height="3.181" rx="1.59" fill="#262850"/>
    </g>
    <g id="Group_803" data-name="Group 803" transform="translate(276.555 149.743)">
      <rect id="Rectangle_188" data-name="Rectangle 188" width="21.606" height="3.181" rx="1.59" fill="#262850"/>
    </g>
    <g id="Group_804" data-name="Group 804" transform="translate(39.251 149.743)">
      <rect id="Rectangle_189" data-name="Rectangle 189" width="192.712" height="3.181" rx="1.59" fill="#262850"/>
    </g>
  </g>
</svg>
