<svg xmlns="http://www.w3.org/2000/svg" width="13.5" height="18" viewBox="0 0 13.5 18">
  <g id="Group_168" data-name="Group 168" transform="translate(-337 -282)">
    <path id="bookmark-solid" d="M0,18V1.688A1.687,1.687,0,0,1,1.688,0H11.813A1.687,1.687,0,0,1,13.5,1.688V18L6.75,14.063Z" transform="translate(337 282)" fill="#F5891D"/>
    <path id="star-solid" d="M26.407,1.993l-1.943.287a.432.432,0,0,0-.241.735L25.632,4.4,25.3,6.379a.433.433,0,0,0,.63.454l1.736-.926,1.735.926a.436.436,0,0,0,.457-.031.43.43,0,0,0,.173-.423L29.7,4.4l1.409-1.382a.435.435,0,0,0,.107-.443.43.43,0,0,0-.348-.292l-1.941-.287L28.054.2a.432.432,0,0,0-.777,0Z" transform="translate(316.28 285.414)" fill="#fff"/>
  </g>
</svg>